<svg xmlns="http://www.w3.org/2000/svg" xmlns:xlink="http://www.w3.org/1999/xlink" id="OBJECTS" x="0" y="0" enable-background="new 0 0 143.9 40.9" version="1.1" viewBox="0 0 143.9 40.9" xml:space="preserve"><switch><g><g><linearGradient id="SVGID_1_" x1="-1.906" x2="34.647" y1="-3.155" y2="-3.155" gradientTransform="matrix(1 2.818158e-04 -2.818158e-04 1 2.0361 26.7884)" gradientUnits="userSpaceOnUse"><stop offset=".006" style="stop-color:#00deff"/><stop offset="1" style="stop-color:#7141b1"/></linearGradient><linearGradient id="SVGID_2_" x1="-2.036" x2="34.778" y1="-3.202" y2="-3.202" gradientTransform="matrix(1 2.818158e-04 -2.818158e-04 1 2.0361 26.7884)" gradientUnits="userSpaceOnUse"><stop offset=".006" style="stop-color:#82e7d7"/><stop offset=".365" style="stop-color:#72c9be"/><stop offset=".524" style="stop-color:#64b0b3"/><stop offset="1" style="stop-color:#3c6a95"/></linearGradient><path fill="url(#SVGID_1_)" stroke="url(#SVGID_2_)" stroke-miterlimit="10" stroke-width=".26" d="M18.5,26.8L8.5,21l0,5.1 l9.9,5.9l13.1-7.2l0,2.9l-13.1,7.3L5.9,27.6l0-21L2.7,8.4c-1.5,0.9-2.5,2.5-2.5,4.3L0.1,28c0,1.8,0.9,3.4,2.5,4.3l13.2,7.7 c1.5,0.9,3.4,0.9,5,0l13.3-7.6c1.5-0.9,2.5-2.5,2.5-4.3L36.7,16L18.5,26.8z"/><linearGradient id="SVGID_3_" x1="6.468" x2="22.952" y1="-20.282" y2="-20.282" gradientTransform="matrix(1 2.818158e-04 -2.818158e-04 1 2.0361 26.7884)" gradientUnits="userSpaceOnUse"><stop offset=".006" style="stop-color:#00deff"/><stop offset="1" style="stop-color:#7141b1"/></linearGradient><linearGradient id="SVGID_4_" x1="-2.112" x2="34.95" y1="-20.234" y2="-20.234" gradientTransform="matrix(1 2.818158e-04 -2.818158e-04 1 2.0361 26.7884)" gradientUnits="userSpaceOnUse"><stop offset=".006" style="stop-color:#82e7d7"/><stop offset=".365" style="stop-color:#72c9be"/><stop offset=".524" style="stop-color:#64b0b3"/><stop offset="1" style="stop-color:#3c6a95"/></linearGradient><path fill="url(#SVGID_3_)" stroke="url(#SVGID_4_)" stroke-miterlimit="10" stroke-width=".26" d="M25,3.1l-4-2.3 c-1.5-0.9-3.4-0.9-5,0L8.5,5.1l0,7.8L25,3.1z"/><linearGradient id="SVGID_5_" x1="6.468" x2="34.663" y1="-12.579" y2="-12.579" gradientTransform="matrix(1 2.818158e-04 -2.818158e-04 1 2.0361 26.7884)" gradientUnits="userSpaceOnUse"><stop offset=".006" style="stop-color:#00deff"/><stop offset="1" style="stop-color:#7141b1"/></linearGradient><linearGradient id="SVGID_6_" x1="-2.066" x2="34.792" y1="-12.579" y2="-12.579" gradientTransform="matrix(1 2.818158e-04 -2.818158e-04 1 2.0361 26.7884)" gradientUnits="userSpaceOnUse"><stop offset=".006" style="stop-color:#82e7d7"/><stop offset=".365" style="stop-color:#72c9be"/><stop offset=".524" style="stop-color:#64b0b3"/><stop offset="1" style="stop-color:#3c6a95"/></linearGradient><path fill="url(#SVGID_5_)" stroke="url(#SVGID_6_)" stroke-miterlimit="10" stroke-width=".26" d="M8.5,18l10,5.8L36.7,13 l0-0.2c0-1.8-0.9-3.4-2.4-4.3L18.4,18l-2.7-1.5l16-9.4l-4.2-2.5l-19,11.2L8.5,18z"/></g><g><path fill="#1B1D21" d="M61.4,21.8h-8.5c0.1,1.4,0.4,2.4,1.1,3.1c0.7,0.7,1.6,1,2.9,1c1.4,0,2.6-0.5,3.7-1.4l0.6,1.4 c-0.5,0.5-1.2,0.9-2,1.1c-0.8,0.3-1.6,0.4-2.4,0.4c-1.8,0-3.3-0.5-4.3-1.6c-1-1.1-1.6-2.6-1.6-4.4c0-1.2,0.2-2.3,0.7-3.2 s1.1-1.6,2-2.1c0.8-0.5,1.8-0.8,2.9-0.8c1.6,0,2.8,0.5,3.6,1.5c0.9,1,1.3,2.4,1.3,4.2V21.8z M54,17.9c-0.6,0.6-1,1.5-1.1,2.7h6.8 c0-1.2-0.3-2.1-0.9-2.7s-1.3-0.9-2.4-0.9C55.4,16.9,54.6,17.2,54,17.9z"/><path fill="#1B1D21" d="M74.3,20v7.3h-1.9v-7.2c0-1.1-0.2-1.9-0.6-2.4s-1.1-0.7-2-0.7c-1.1,0-1.9,0.3-2.6,1c-0.6,0.7-1,1.5-1,2.7 v6.7h-1.9V15.7h1.9v1.9c0.4-0.7,0.9-1.3,1.6-1.6c0.7-0.4,1.5-0.6,2.4-0.6C72.9,15.4,74.3,16.9,74.3,20z"/><path fill="#1B1D21" d="M88.3,15.7v10.9c0,1.7-0.4,3.1-1.3,3.9c-0.9,0.9-2.2,1.3-4,1.3c-2,0-3.8-0.5-5.2-1.6l0.6-1.4 c0.8,0.5,1.5,0.9,2.2,1.1c0.7,0.2,1.5,0.3,2.3,0.3c1.1,0,2-0.3,2.5-0.9s0.9-1.5,0.9-2.6v-2.1c-0.3,0.8-0.9,1.3-1.5,1.7 c-0.7,0.4-1.5,0.6-2.5,0.6c-1,0-1.9-0.2-2.7-0.7c-0.8-0.5-1.4-1.2-1.8-2c-0.4-0.9-0.7-1.9-0.7-3s0.2-2.2,0.7-3 c0.4-0.9,1.1-1.6,1.8-2c0.8-0.5,1.7-0.7,2.7-0.7c0.9,0,1.7,0.2,2.4,0.6c0.7,0.4,1.2,1,1.6,1.7v-2H88.3z M85.4,24.3 c0.6-0.7,1-1.8,1-3.1c0-1.3-0.3-2.3-0.9-3.1c-0.6-0.7-1.5-1.1-2.7-1.1c-1.1,0-2,0.4-2.7,1.1c-0.6,0.7-1,1.8-1,3.1 c0,1.3,0.3,2.3,1,3.1s1.5,1.1,2.7,1.1C83.9,25.4,84.8,25,85.4,24.3z"/><path fill="#1B1D21" d="M91.8,10.6h2.4v2.2h-2.4V10.6z M91.9,27.4V15.7h1.9v11.7H91.9z"/><path fill="#1B1D21" d="M104.8,24.8l-0.2,2.6c-0.5,0.1-0.9,0.1-1.4,0.1c-1.8,0-3.1-0.4-3.9-1.2c-0.8-0.8-1.2-2-1.2-3.6v-4.5h-2.2 v-2.7H98v-3.5h3.6v3.5h3v2.7h-3v4.5c0,1.4,0.7,2.1,2,2.1C104,24.9,104.4,24.9,104.8,24.8z"/><path fill="#1B1D21" d="M117,22.2h-7.7c0.1,0.9,0.4,1.6,0.9,2.1c0.5,0.4,1.2,0.6,2.1,0.6c0.6,0,1.2-0.1,1.8-0.3 c0.6-0.2,1.1-0.5,1.6-0.9l1,2.4c-0.6,0.4-1.3,0.8-2.1,1.1c-0.8,0.3-1.7,0.4-2.5,0.4c-2,0-3.5-0.5-4.7-1.6 c-1.1-1.1-1.7-2.6-1.7-4.5c0-1.2,0.2-2.3,0.7-3.2c0.5-0.9,1.2-1.7,2.1-2.2c0.9-0.5,1.9-0.8,3-0.8c1.6,0,3,0.5,3.9,1.6 s1.5,2.5,1.5,4.4V22.2z M110.1,18.4c-0.4,0.4-0.7,1.1-0.8,1.9h4.6c0-0.8-0.3-1.5-0.6-1.9c-0.4-0.4-0.9-0.6-1.6-0.6 C111,17.8,110.5,18,110.1,18.4z"/><path fill="#1B1D21" d="M120.3,25.9c-1.1-1.1-1.7-2.6-1.7-4.4c0-1.2,0.3-2.3,0.8-3.3c0.5-0.9,1.3-1.7,2.2-2.2 c1-0.5,2.1-0.8,3.3-0.8c0.9,0,1.7,0.1,2.5,0.4c0.8,0.3,1.4,0.6,1.9,1.1l-1,2.5c-0.5-0.4-1-0.7-1.5-0.9c-0.6-0.2-1.1-0.3-1.6-0.3 c-0.9,0-1.7,0.3-2.2,0.8c-0.5,0.6-0.8,1.4-0.8,2.5c0,1.1,0.3,1.9,0.8,2.5c0.5,0.6,1.3,0.9,2.2,0.9c0.5,0,1.1-0.1,1.6-0.3 c0.6-0.2,1.1-0.5,1.5-0.9l1,2.5c-0.5,0.4-1.2,0.8-2,1.1c-0.8,0.3-1.7,0.4-2.6,0.4C122.9,27.6,121.4,27,120.3,25.9z"/><path fill="#1B1D21" d="M141.6,16.5c0.7,0.8,1,2.1,1,3.7v7.1H139v-6.9c0-0.8-0.1-1.4-0.4-1.8c-0.3-0.4-0.8-0.6-1.4-0.6 c-0.8,0-1.4,0.2-1.8,0.7c-0.5,0.5-0.7,1.1-0.7,1.9v6.6H131V10.4h3.6v6.7c0.4-0.6,0.9-1.1,1.6-1.4c0.6-0.3,1.4-0.5,2.2-0.5 C139.8,15.3,140.9,15.7,141.6,16.5z"/></g></g></switch></svg>