<svg xmlns="http://www.w3.org/2000/svg" xmlns:xlink="http://www.w3.org/1999/xlink" id="Режим_изоляции" x="0" y="0" enable-background="new 0 0 149 31.6" version="1.1" viewBox="0 0 149 31.6" xml:space="preserve"><switch><g><g id="_x33_"><g><path fill="#1A1B1E" d="M67.2,18.7c0,0.7-0.1,1.4-0.4,2c-0.3,0.6-0.6,1.2-1,1.6c-0.4,0.5-1,0.8-1.6,1.1c-0.6,0.3-1.3,0.4-2,0.4 c-0.7,0-1.4-0.1-2.1-0.4c-0.6-0.3-1.2-0.6-1.7-1.1c-0.5-0.5-0.8-1-1.1-1.6s-0.4-1.3-0.4-2c0-0.7,0.1-1.4,0.4-2 c0.3-0.6,0.6-1.2,1.1-1.6c0.5-0.5,1-0.8,1.7-1.1c0.6-0.3,1.3-0.4,2-0.4c0.8,0,1.6,0.2,2.4,0.5c0.7,0.3,1.3,0.8,1.8,1.4l-1.7,1.5 c-0.3-0.4-0.7-0.7-1.1-0.9s-0.9-0.3-1.4-0.3c-0.4,0-0.8,0.1-1.1,0.2c-0.3,0.1-0.6,0.3-0.9,0.6s-0.4,0.6-0.6,0.9 c-0.1,0.4-0.2,0.7-0.2,1.1c0,0.4,0.1,0.8,0.2,1.1c0.1,0.3,0.3,0.7,0.6,0.9s0.5,0.5,0.9,0.6c0.3,0.1,0.7,0.2,1.1,0.2 c0.6,0,1.1-0.1,1.5-0.4c0.4-0.3,0.7-0.7,0.8-1.1h-2.6V18h5.3V18.7z"/><path fill="#1A1B1E" d="M68.5,23.7v-9.8h5c0.5,0,1,0.1,1.4,0.2c0.4,0.2,0.8,0.4,1.1,0.6c0.3,0.3,0.5,0.6,0.7,1 c0.2,0.4,0.3,0.8,0.3,1.3c0,0.6-0.2,1.2-0.5,1.7c-0.3,0.5-0.8,0.9-1.3,1.1l2.1,3.9h-2.7l-1.8-3.6h-1.8v3.6H68.5z M73.2,15.9 h-2.4v2.2h2.4c0.4,0,0.7-0.1,0.9-0.3s0.3-0.5,0.3-0.8c0-0.3-0.1-0.6-0.3-0.8C73.9,16,73.6,15.9,73.2,15.9z"/><path fill="#1A1B1E" d="M78.2,23.7v-9.8h7.7V16h-5.3v1.8h3.5v2h-3.5v1.8h5.4v2.1H78.2z"/><path fill="#1A1B1E" d="M87.4,23.7v-9.8h7.7V16h-5.3v1.8h3.5v2h-3.5v1.8h5.4v2.1H87.4z"/><path fill="#1A1B1E" d="M96.6,13.9h2.3l4.5,5.7v-5.7h2.3v9.8h-2.1l-4.6-5.9v5.9h-2.3V13.9z"/><path fill="#1A1B1E" d="M109.9,23.7v-9.8h2.4v3.8h4v-3.8h2.4v9.8h-2.4v-3.8h-4v3.8H109.9z"/><path fill="#1A1B1E" d="M130.5,18.8c0,0.7-0.1,1.4-0.4,2c-0.3,0.6-0.6,1.2-1.1,1.6c-0.5,0.5-1,0.8-1.7,1.1 c-0.6,0.3-1.3,0.4-2.1,0.4c-0.7,0-1.4-0.1-2.1-0.4c-0.6-0.3-1.2-0.6-1.7-1.1c-0.5-0.5-0.8-1-1.1-1.6s-0.4-1.3-0.4-2 c0-0.7,0.1-1.4,0.4-2s0.6-1.2,1.1-1.6c0.5-0.5,1-0.8,1.7-1.1c0.6-0.3,1.3-0.4,2.1-0.4c0.7,0,1.4,0.1,2.1,0.4 c0.6,0.3,1.2,0.6,1.7,1.1c0.5,0.5,0.8,1,1.1,1.6C130.4,17.4,130.5,18.1,130.5,18.8z M128,18.8c0-0.4-0.1-0.8-0.2-1.1 c-0.1-0.3-0.3-0.7-0.6-0.9s-0.5-0.5-0.9-0.6c-0.3-0.1-0.7-0.2-1.1-0.2c-0.4,0-0.8,0.1-1.1,0.2c-0.3,0.1-0.6,0.3-0.9,0.6 c-0.2,0.3-0.4,0.6-0.6,0.9c-0.1,0.4-0.2,0.7-0.2,1.1c0,0.4,0.1,0.8,0.2,1.1c0.1,0.4,0.3,0.7,0.6,0.9c0.2,0.3,0.5,0.5,0.9,0.6 c0.3,0.1,0.7,0.2,1.1,0.2c0.4,0,0.8-0.1,1.1-0.2c0.3-0.1,0.6-0.3,0.9-0.6s0.4-0.6,0.6-0.9C127.9,19.6,128,19.2,128,18.8z"/><path fill="#1A1B1E" d="M131,22.2l1.3-1.8c0.6,0.5,1.1,0.8,1.7,1c0.5,0.2,1,0.3,1.6,0.3c0.5,0,1-0.1,1.3-0.3 c0.3-0.2,0.5-0.4,0.5-0.7c0-0.3-0.1-0.5-0.3-0.6s-0.6-0.3-1-0.4l-2.2-0.4c-0.8-0.1-1.4-0.4-1.8-0.9c-0.4-0.5-0.6-1.1-0.6-1.8 c0-0.9,0.4-1.7,1.1-2.2s1.7-0.8,2.9-0.8c0.7,0,1.5,0.1,2.2,0.4c0.7,0.3,1.4,0.6,1.9,1l-1.3,1.8c-0.5-0.4-1-0.7-1.5-0.9 c-0.5-0.2-1-0.3-1.5-0.3c-0.5,0-0.9,0.1-1.2,0.2c-0.3,0.2-0.4,0.4-0.4,0.6c0,0.2,0.1,0.4,0.3,0.6s0.5,0.2,0.9,0.3l2,0.3 c0.9,0.1,1.7,0.5,2.1,0.9c0.5,0.5,0.7,1.1,0.7,1.8c0,1-0.4,1.8-1.2,2.4c-0.8,0.6-1.8,0.9-3.1,0.9c-0.8,0-1.6-0.1-2.3-0.4 S131.6,22.7,131,22.2z"/><path fill="#1A1B1E" d="M139.9,16v-2.1h8.8V16h-3.2v7.7h-2.4V16H139.9z"/></g><linearGradient id="SVGID_1_" x1="2.764" x2="42.058" y1="11.472" y2="24.198" gradientUnits="userSpaceOnUse"><stop offset="0" style="stop-color:#2ad3f8"/><stop offset=".981" style="stop-color:#933cff"/></linearGradient><path fill="url(#SVGID_1_)" d="M26.7,21c2.3,0,4.1-1.8,4.1-4.1s-1.8-4.1-4.1-4.1c-2.3,0-4.1,1.8-4.1,4.1S24.4,21,26.7,21z M14.7,24.3c-1.5,0-2.7,1.2-2.7,2.7c0,1.5,1.2,2.7,2.7,2.7c1.5,0,2.7-1.2,2.7-2.7C17.3,25.5,16.1,24.3,14.7,24.3z M35.2,26.7 c-1,0-1.9,0.8-1.9,1.9c0,1,0.8,1.9,1.9,1.9s1.9-0.8,1.9-1.9C37.1,27.5,36.3,26.7,35.2,26.7z M46.1,17.1c-0.3-3.1-2.8-5.5-5.8-5.8 c-2.8-0.2-5.2,1.4-6.3,3.8l0,0c0,0,0,0,0,0l-1.8,4.3c-0.9,2.1-2.6,3.7-4.8,4.4h0c-1.5,0.5-3.2,0.1-4.3-1 c-0.5-0.4-0.8-0.8-0.8-0.8c-0.9-0.9-1.5-2-1.8-3.3c-0.1-0.4-0.1-0.9-0.1-1.3l0.2-4.8l0.1-2.2l0,0c0-0.1,0-0.1,0-0.2 c0-6-5-10.7-11.1-10.3C4.5,0.4,0.4,4.5,0,9.6c-0.1,0.9,0,1.8,0.1,2.6c0.9,4.8,5.1,8.5,10.2,8.5c0.2,0,4.5,0.3,6.2,1.3l1.2,0.7 c1.1,0.6,2,1.6,2.5,2.8l1.4,3.5l0,0c0.4,1.5,1.7,2.6,3.3,2.6c1.1,0,2.1-0.5,2.7-1.3c0.5-0.7,4.3-4.4,4.3-4.4 c0.9-0.9,2.1-1.5,3.4-1.5l5-0.3c2.6-0.2,4.8-2,5.5-4.4c0.2-0.6,0.3-1.2,0.3-1.9C46.1,17.5,46.1,17.3,46.1,17.1z"/></g></g></switch></svg>