<svg xmlns="http://www.w3.org/2000/svg" xmlns:xlink="http://www.w3.org/1999/xlink" id="Режим_изоляции" x="0" y="0" enable-background="new 0 0 141.1 33.3" version="1.1" viewBox="0 0 141.1 33.3" xml:space="preserve"><switch><g><g id="_x31_"><g><linearGradient id="SVGID_1_" x1="22.064" x2="32.711" y1="29.581" y2="11.227" gradientUnits="userSpaceOnUse"><stop offset="0" style="stop-color:#726bfa"/><stop offset="1" style="stop-color:#5799fb"/></linearGradient><path fill="url(#SVGID_1_)" d="M38,15.1l0,10.6c0,0.5-0.3,1-0.7,1.2l-9.2,5.3c-0.4,0.3-1,0.3-1.4,0l-6.5-3.8 c1-0.3,1.7-1.2,1.7-2.3v-2.4c0.1,0.1,5,3.1,5,3.1c0.3,0.2,0.8,0.2,1.1,0l4.7-2.7c0.3-0.2,0.6-0.6,0.6-1l0-5.4 c0-0.4-0.2-0.8-0.6-1l-4.7-3c-0.3-0.2-0.8-0.2-1.1,0l-7.1,3.8c-0.3,0.2-0.8,0.2-1.1,0l-1.9-1.1h0l0-1.4c0-0.5,0.3-1,0.7-1.2 l1.7-0.9l5.7-3.3L25,9.5l1.7-1c0.4-0.3,1-0.3,1.4,0l1.6,0.9l0.1,0.1l7.5,4.3C37.7,14.1,38,14.6,38,15.1z"/><linearGradient id="SVGID_2_" x1="11.924" x2="22.572" y1="20.063" y2="1.707" gradientUnits="userSpaceOnUse"><stop offset="0" style="stop-color:#726bfa"/><stop offset="1" style="stop-color:#5799fb"/></linearGradient><path fill="url(#SVGID_2_)" d="M29.8,8.6l-1.6-0.9c-0.4-0.3-1-0.3-1.4,0l-1.7,1L25,8.7c-1.1-0.7-5.2-3.1-5.2-3.1 c-0.3-0.2-0.8-0.2-1.1,0L14,8.4c-0.3,0.2-0.6,0.6-0.6,1V10l0,4.7c0,0.4,0.2,0.8,0.6,1l2.8,1.6l1.9,1.1c0.3,0.2,0.8,0.2,1.1,0 l1.8-1.1l0,5.1c-0.1,0-1.7,1-1.7,1c-0.4,0.3-1,0.6-1.4,0.3l-1.7-0.9l0,0l-7.4-4.3c-0.4-0.3-0.7-0.7-0.7-1.2l0-1.8l0-5.6l0-3.2 c0-0.5,0.3-1,0.7-1.2l9.2-5.3c0.4-0.3,1-0.3,1.4,0l9.2,5.3c0.4,0.3,0.7,0.7,0.7,1.2C29.8,7.5,29.9,7.9,29.8,8.6z"/><linearGradient id="SVGID_3_" x1="5.295" x2="14.745" y1="30.447" y2="14.158" gradientUnits="userSpaceOnUse"><stop offset="0" style="stop-color:#5799fb"/><stop offset="1" style="stop-color:#726bfa"/></linearGradient><path fill="url(#SVGID_3_)" d="M21.2,23.4l0,2.9v0.3c0,0.5-0.3,1-0.7,1.2l-1.1,0.6l-0.5,0.3l-7.5,4.3c-0.4,0.3-1,0.3-1.4,0 l-9.2-5.3C0.3,27.5,0,27.1,0,26.5v-0.3L0,16c0-0.5,0.3-1,0.7-1.2L8,10.6V16c0,0,0,0.1,0,0.1l-2.6,1.5c-0.4,0.2-0.6,0.6-0.6,1 l0,5.1v0.3c0,0.4,0.2,0.8,0.6,1l4.7,2.7c0.3,0.2,0.8,0.2,1.1,0l4.7-2.7c0.4-0.2,0.6-0.6,0.6-1v-0.7l0,0l0.2,0.1l1.5,0.9 c0.4,0.3,1,0.3,1.4,0l0,0l0,0c0.1,0,0.1,0,0.2-0.1L21.2,23.4z"/></g><g><g><path fill="#1A1B1E" d="M52.5,24.7c-0.9-0.3-1.7-0.6-2.2-1.1l1-2.2c0.5,0.4,1.2,0.7,1.9,1c0.7,0.2,1.5,0.4,2.2,0.4 c0.8,0,1.4-0.1,1.8-0.4c0.4-0.2,0.6-0.6,0.6-1c0-0.3-0.1-0.5-0.4-0.7c-0.2-0.2-0.5-0.4-0.9-0.5c-0.4-0.1-0.9-0.3-1.5-0.4 c-1-0.2-1.7-0.5-2.4-0.7c-0.6-0.2-1.1-0.6-1.6-1.1c-0.4-0.5-0.7-1.2-0.7-2c0-0.7,0.2-1.4,0.6-2c0.4-0.6,1-1.1,1.8-1.4 s1.8-0.5,2.9-0.5c0.8,0,1.6,0.1,2.4,0.3c0.8,0.2,1.4,0.5,2,0.8l-0.9,2.2c-1.2-0.7-2.3-1-3.5-1c-0.8,0-1.4,0.1-1.8,0.4 c-0.4,0.3-0.6,0.6-0.6,1c0,0.4,0.2,0.8,0.7,1s1.1,0.4,2.1,0.6c1,0.2,1.7,0.5,2.4,0.7c0.6,0.2,1.1,0.6,1.6,1.1 c0.4,0.5,0.7,1.2,0.7,2c0,0.7-0.2,1.4-0.6,2c-0.4,0.6-1,1.1-1.8,1.4c-0.8,0.3-1.8,0.5-2.9,0.5C54.4,25.1,53.4,25,52.5,24.7z"/><path fill="#1A1B1E" d="M72.4,22.6v2.3h-9.8V12.3h9.5v2.3h-6.6v2.7h5.9v2.3h-5.9v2.9H72.4z"/><path fill="#1A1B1E" d="M77.3,24.3c-1-0.6-1.9-1.3-2.5-2.3s-0.9-2.1-0.9-3.3s0.3-2.3,0.9-3.3c0.6-1,1.4-1.8,2.5-2.3 c1.1-0.6,2.2-0.8,3.5-0.8c1.3,0,2.5,0.3,3.5,0.8c1,0.6,1.9,1.3,2.5,2.3c0.6,1,0.9,2.1,0.9,3.3s-0.3,2.3-0.9,3.3 s-1.4,1.8-2.5,2.3s-2.2,0.8-3.5,0.8C79.5,25.1,78.4,24.8,77.3,24.3z M82.9,22.1c0.6-0.3,1.1-0.8,1.4-1.4 c0.3-0.6,0.5-1.3,0.5-2.1s-0.2-1.5-0.5-2.1c-0.3-0.6-0.8-1.1-1.4-1.4c-0.6-0.3-1.3-0.5-2-0.5s-1.4,0.2-2,0.5 c-0.6,0.3-1.1,0.8-1.4,1.4c-0.3,0.6-0.5,1.3-0.5,2.1s0.2,1.5,0.5,2.1s0.8,1.1,1.4,1.4c0.6,0.3,1.3,0.5,2,0.5 S82.3,22.5,82.9,22.1z"/><path fill="#1A1B1E" d="M106.5,24.9l0-7.6l-3.7,6.2h-1.3l-3.7-6.1v7.4H95V12.3h2.4l4.7,7.8l4.6-7.8h2.4l0,12.6H106.5z"/><path fill="#1A1B1E" d="M112.2,13.4c-0.3-0.3-0.5-0.7-0.5-1.1c0-0.4,0.2-0.8,0.5-1.1c0.3-0.3,0.7-0.5,1.3-0.5 c0.5,0,0.9,0.1,1.3,0.4s0.5,0.6,0.5,1.1c0,0.5-0.2,0.9-0.5,1.2c-0.3,0.3-0.7,0.5-1.3,0.5C112.9,13.9,112.5,13.7,112.2,13.4z M112,15.2h2.8v9.7H112V15.2z"/><path fill="#1A1B1E" d="M126.2,16.2c0.7,0.7,1.1,1.8,1.1,3.2v5.5h-2.8v-5.1c0-0.8-0.2-1.3-0.5-1.7s-0.8-0.6-1.5-0.6 c-0.7,0-1.3,0.2-1.7,0.7c-0.4,0.4-0.6,1.1-0.6,2v4.8h-2.8v-9.7h2.7v1.1c0.4-0.4,0.8-0.7,1.4-0.9c0.6-0.2,1.2-0.3,1.8-0.3 C124.5,15.1,125.5,15.4,126.2,16.2z"/><path fill="#1A1B1E" d="M139.8,11.5v13.4h-2.7v-1.1c-0.7,0.8-1.7,1.3-3,1.3c-0.9,0-1.7-0.2-2.5-0.6c-0.7-0.4-1.3-1-1.7-1.7 s-0.6-1.6-0.6-2.6s0.2-1.9,0.6-2.6s1-1.3,1.7-1.7c0.7-0.4,1.6-0.6,2.5-0.6c1.2,0,2.2,0.4,2.9,1.2v-4.7H139.8z M136.4,22 c0.5-0.5,0.7-1.1,0.7-2s-0.2-1.5-0.7-2s-1.1-0.7-1.8-0.7c-0.7,0-1.3,0.2-1.8,0.7s-0.7,1.1-0.7,2s0.2,1.5,0.7,2 c0.5,0.5,1.1,0.7,1.8,0.7C135.3,22.7,135.9,22.5,136.4,22z"/></g></g></g></g></switch></svg>